<svg width="16" height="16" viewBox="0 0 16 16" fill="none" xmlns="http://www.w3.org/2000/svg">
<g clip-path="url(#clip0_42_219)">
<path d="M10.77 16.12C10.4567 16.12 10.18 16.0667 9.94002 15.96C9.70002 15.8467 9.49669 15.7 9.33002 15.52C9.17002 15.3333 9.04669 15.12 8.96002 14.88C8.88002 14.6333 8.84002 14.3733 8.84002 14.1C8.84002 13.68 8.94002 13.3133 9.14002 13C9.34002 12.6867 9.63336 12.4167 10.02 12.19C9.80669 11.89 9.64336 11.6233 9.53003 11.39C9.42336 11.1567 9.37002 10.9133 9.37002 10.66C9.37002 10.4133 9.41669 10.1833 9.51002 9.97C9.61002 9.75 9.74669 9.56333 9.92002 9.41C10.1 9.25 10.3067 9.12667 10.54 9.04C10.78 8.94667 11.04 8.9 11.32 8.9C11.5667 8.9 11.7967 8.93667 12.01 9.01C12.2234 9.07666 12.41 9.16667 12.57 9.28C12.7367 9.39333 12.8734 9.52666 12.98 9.68C13.0934 9.82666 13.1767 9.98 13.23 10.14L12.21 10.69C12.1367 10.4767 12.0234 10.31 11.87 10.19C11.7167 10.0633 11.54 10 11.34 10C11.14 10 10.9767 10.06 10.85 10.18C10.73 10.3 10.67 10.4567 10.67 10.65V10.7C10.67 10.7933 10.6834 10.8833 10.71 10.97C10.7367 11.05 10.7834 11.1433 10.85 11.25C10.9167 11.35 11 11.47 11.1 11.61C11.2067 11.7433 11.34 11.91 11.5 12.11L12.07 12.83L12.55 13.57H12.61C12.63 13.4567 12.6467 13.3333 12.66 13.2C12.6734 13.06 12.6834 12.92 12.69 12.78C12.7034 12.6333 12.71 12.4933 12.71 12.36C12.7167 12.22 12.72 12.0933 12.72 11.98H14.5V13.08H13.8C13.7667 13.2933 13.7167 13.5133 13.65 13.74C13.5834 13.96 13.4967 14.1867 13.39 14.42L14.69 16H13.11L12.31 15.03H12.24C12.1934 15.37 12.04 15.6367 11.78 15.83C11.52 16.0233 11.1834 16.12 10.77 16.12ZM11.14 14.99C11.2934 14.99 11.4367 14.9633 11.57 14.91C11.7034 14.85 11.8167 14.7433 11.91 14.59L10.62 12.95C10.4467 13.1167 10.3334 13.2867 10.28 13.46C10.2267 13.6267 10.2 13.8067 10.2 14V14.02C10.2 14.34 10.2834 14.5833 10.45 14.75C10.6234 14.91 10.8534 14.99 11.14 14.99Z" fill="white"/>
<path d="M2.24393 16V14.79H4.12393V10.11H4.03393L2.61393 11.97L1.65393 11.22L3.32393 9.02H5.62393V14.79H7.10393V16H2.24393Z" fill="white"/>
<path d="M11.7 8.12C10.7667 8.12 10.0767 7.80333 9.63002 7.17C9.19002 6.53667 8.97002 5.65 8.97002 4.51C8.97002 3.37 9.19002 2.48333 9.63002 1.85C10.0767 1.21666 10.7667 0.899998 11.7 0.899998C12.6334 0.899998 13.32 1.21666 13.76 1.85C14.2067 2.48333 14.43 3.37 14.43 4.51C14.43 5.65 14.2067 6.53667 13.76 7.17C13.32 7.80333 12.6334 8.12 11.7 8.12ZM11.7 6.94C12.1467 6.94 12.4567 6.78333 12.63 6.47C12.81 6.15666 12.9 5.72 12.9 5.16V3.86C12.9 3.3 12.81 2.86333 12.63 2.55C12.4567 2.23667 12.1467 2.08 11.7 2.08C11.2534 2.08 10.94 2.23667 10.76 2.55C10.5867 2.86333 10.5 3.3 10.5 3.86V5.16C10.5 5.72 10.5867 6.15666 10.76 6.47C10.94 6.78333 11.2534 6.94 11.7 6.94ZM11.7 5.1C11.4667 5.1 11.3034 5.05333 11.21 4.96C11.1234 4.86667 11.08 4.75333 11.08 4.62V4.4C11.08 4.26666 11.1234 4.15333 11.21 4.06C11.3034 3.96667 11.4667 3.92 11.7 3.92C11.9334 3.92 12.0934 3.96667 12.18 4.06C12.2734 4.15333 12.32 4.26666 12.32 4.4V4.62C12.32 4.75333 12.2734 4.86667 12.18 4.96C12.0934 5.05333 11.9334 5.1 11.7 5.1Z" fill="white"/>
<path d="M1.95393 0.599998H3.43393V3.78H3.49393C3.55393 3.63333 3.62726 3.49666 3.71393 3.37C3.8006 3.24333 3.90393 3.13333 4.02393 3.04C4.1506 2.94 4.29393 2.86333 4.45393 2.81C4.6206 2.75 4.80726 2.72 5.01393 2.72C5.2606 2.72 5.48726 2.76333 5.69393 2.85C5.9006 2.93 6.07726 3.05333 6.22393 3.22C6.3706 3.38667 6.48393 3.59 6.56393 3.83C6.6506 4.07 6.69393 4.34667 6.69393 4.66V8H5.21393V4.86C5.21393 4.19333 4.92393 3.86 4.34393 3.86C4.2306 3.86 4.11726 3.87666 4.00393 3.91C3.89726 3.93667 3.8006 3.98333 3.71393 4.05C3.62726 4.11 3.55726 4.18667 3.50393 4.28C3.45726 4.37333 3.43393 4.48333 3.43393 4.61V8H1.95393V0.599998Z" fill="white"/>
</g>
<defs>
<clipPath id="clip0_42_219">
<rect width="16" height="16" fill="white"/>
</clipPath>
</defs>
</svg>
