<svg width="16" height="16" viewBox="0 0 16 16" fill="none" xmlns="http://www.w3.org/2000/svg">
<path d="M3.24863 2H12.7513C12.8565 1.99999 12.9602 2.02486 13.0539 2.0726C13.1477 2.12034 13.2288 2.18958 13.2906 2.27467L15.8393 5.77867C15.8846 5.84101 15.9069 5.91714 15.9024 5.99408C15.8979 6.07102 15.8669 6.14402 15.8146 6.20067L8.24463 14.4013C8.21343 14.4351 8.17558 14.462 8.13348 14.4804C8.09137 14.4988 8.04592 14.5083 7.99997 14.5083C7.95402 14.5083 7.90856 14.4988 7.86646 14.4804C7.82435 14.462 7.78651 14.4351 7.7553 14.4013L0.185302 6.20133C0.132869 6.14464 0.101745 6.07151 0.0972462 5.99442C0.0927473 5.91733 0.115153 5.84107 0.160635 5.77867L2.7093 2.27467C2.77115 2.18958 2.85226 2.12034 2.946 2.0726C3.03974 2.02486 3.14344 1.99999 3.24863 2Z" fill="white"/>
</svg>
