<svg width="16" height="16" viewBox="0 0 16 16" fill="none" xmlns="http://www.w3.org/2000/svg">
<g clip-path="url(#clip0_42_217)">
<path d="M8 4.5C8 6.70914 6.20914 8.5 4 8.5C1.79086 8.5 0 6.70914 0 4.5C0 2.29086 1.79086 0.5 4 0.5C6.20914 0.5 8 2.29086 8 4.5Z" fill="white"/>
<path d="M16 11.5C16 9.29086 14.2091 7.5 12 7.5C9.79086 7.5 8 9.29086 8 11.5C8 13.7091 9.79086 15.5 12 15.5C14.2091 15.5 16 13.7091 16 11.5Z" fill="white"/>
<path d="M7 12.5C7 14.1569 5.65685 15.5 4 15.5C2.34315 15.5 1 14.1569 1 12.5C1 10.8431 2.34315 9.5 4 9.5C5.65685 9.5 7 10.8431 7 12.5Z" fill="white"/>
<path d="M15 3.5C15 1.84315 13.6569 0.5 12 0.5C10.3431 0.5 9 1.84315 9 3.5C9 5.15685 10.3431 6.5 12 6.5C13.6569 6.5 15 5.15685 15 3.5Z" fill="white"/>
</g>
<defs>
<clipPath id="clip0_42_217">
<rect width="16" height="16" fill="white"/>
</clipPath>
</defs>
</svg>
