<svg width="16" height="16" viewBox="0 0 16 16" fill="none" xmlns="http://www.w3.org/2000/svg">
<path d="M7.5 4.25C7.5 6.04493 6.04493 7.5 4.25 7.5C2.45507 7.5 1 6.04493 1 4.25C1 2.45507 2.45507 1 4.25 1C6.04493 1 7.5 2.45507 7.5 4.25Z" fill="white"/>
<path d="M11.3668 1.3C11.4438 1.16667 11.6362 1.16667 11.7132 1.3L14.8309 6.7C14.9079 6.83333 14.8117 7 14.6577 7H8.42231C8.26835 7 8.17212 6.83333 8.2491 6.7L11.3668 1.3Z" fill="white"/>
<path d="M8.30371 8.50371C8.30371 8.39325 8.39325 8.30371 8.50371 8.30371H14.8C14.9105 8.30371 15 8.39325 15 8.50371V14.8C15 14.9105 14.9105 15 14.8 15H8.50371C8.39325 15 8.30371 14.9105 8.30371 14.8V8.50371Z" fill="white"/>
<path d="M4.10858 8.64142C4.18668 8.56332 4.31332 8.56332 4.39142 8.64142L7.35858 11.6086C7.43668 11.6867 7.43668 11.8133 7.35858 11.8914L4.39142 14.8586C4.31332 14.9367 4.18668 14.9367 4.10858 14.8586L1.14142 11.8914C1.06332 11.8133 1.06332 11.6867 1.14142 11.6086L4.10858 8.64142Z" fill="white"/>
</svg>
