<svg width="16" height="16" viewBox="0 0 16 16" fill="none" xmlns="http://www.w3.org/2000/svg">
<path d="M1 9.2C1 9.08954 1.08954 9 1.2 9H6.8C6.91046 9 7 9.08954 7 9.2V14.8C7 14.9105 6.91046 15 6.8 15H1.2C1.08954 15 1 14.9105 1 14.8V9.2Z" fill="white"/>
<path d="M9 9.2C9 9.08954 9.08954 9 9.2 9H14.8C14.9105 9 15 9.08954 15 9.2V14.8C15 14.9105 14.9105 15 14.8 15H9.2C9.08954 15 9 14.9105 9 14.8V9.2Z" fill="white"/>
<path d="M1 1.2C1 1.08954 1.08954 1 1.2 1H6.8C6.91046 1 7 1.08954 7 1.2V6.8C7 6.91046 6.91046 7 6.8 7H1.2C1.08954 7 1 6.91046 1 6.8V1.2Z" fill="white"/>
<path d="M9 1.2C9 1.08954 9.08954 1 9.2 1H14.8C14.9105 1 15 1.08954 15 1.2V6.8C15 6.91046 14.9105 7 14.8 7H9.2C9.08954 7 9 6.91046 9 6.8V1.2Z" fill="white"/>
</svg>
