<svg width="16" height="16" viewBox="0 0 16 16" fill="none" xmlns="http://www.w3.org/2000/svg">
<path d="M11.6111 10.8C12.8078 10.8 13.7778 11.7401 13.7778 12.9C13.7778 14.0599 12.8078 15 11.6111 15C10.4144 15 9.44445 14.0599 9.44445 12.9C9.44445 11.7401 10.4144 10.8 11.6111 10.8ZM4.38889 8C5.985 8 7.27778 9.253 7.27778 10.8C7.27778 12.347 5.985 13.6 4.38889 13.6C2.79278 13.6 1.5 12.347 1.5 10.8C1.5 9.253 2.79278 8 4.38889 8ZM10.5278 1C12.7219 1 14.5 2.7234 14.5 4.85C14.5 6.9766 12.7219 8.7 10.5278 8.7C8.33367 8.7 6.55556 6.9766 6.55556 4.85C6.55556 2.7234 8.33367 1 10.5278 1Z" fill="white"/>
</svg>
