<svg width="16" height="16" viewBox="0 0 16 16" fill="none" xmlns="http://www.w3.org/2000/svg">
<circle cx="4.25" cy="4.25" r="3.25" fill="white"/>
<path d="M11.3668 1.3C11.4438 1.16667 11.6362 1.16667 11.7132 1.3L14.8309 6.7C14.9079 6.83333 14.8117 7 14.6577 7H8.42232C8.26836 7 8.17213 6.83333 8.24911 6.7L11.3668 1.3Z" fill="white"/>
<rect x="8.30371" y="8.30371" width="6.69629" height="6.69629" rx="0.2" fill="white"/>
<path d="M4.10858 8.64142C4.18668 8.56332 4.31332 8.56332 4.39142 8.64142L7.35858 11.6086C7.43668 11.6867 7.43668 11.8133 7.35858 11.8914L4.39142 14.8586C4.31332 14.9367 4.18668 14.9367 4.10858 14.8586L1.14142 11.8914C1.06332 11.8133 1.06332 11.6867 1.14142 11.6086L4.10858 8.64142Z" fill="white"/>
</svg>
