<svg width="16" height="16" viewBox="0 0 16 16" fill="none" xmlns="http://www.w3.org/2000/svg">
<path d="M10.6673 10.6673C11.772 10.6673 12.6673 11.5627 12.6673 12.6673C12.6673 13.772 11.772 14.6673 10.6673 14.6673C9.56265 14.6673 8.66732 13.772 8.66732 12.6673C8.66732 11.5627 9.56265 10.6673 10.6673 10.6673ZM4.00065 8.00065C5.47398 8.00065 6.66732 9.19398 6.66732 10.6673C6.66732 12.1407 5.47398 13.334 4.00065 13.334C2.52732 13.334 1.33398 12.1407 1.33398 10.6673C1.33398 9.19398 2.52732 8.00065 4.00065 8.00065ZM9.66732 1.33398C11.6927 1.33398 13.334 2.97532 13.334 5.00065C13.334 7.02598 11.6927 8.66732 9.66732 8.66732C7.64198 8.66732 6.00065 7.02598 6.00065 5.00065C6.00065 2.97532 7.64198 1.33398 9.66732 1.33398Z" fill="white"/>
</svg>
